<svg width="496" height="509" xmlns="http://www.w3.org/2000/svg"><g fill="none" fill-rule="evenodd"><path d="M143.43 17.464C150.754 6.897 161.19-.348 167.127.013c4.89.297 13.506 7.915 16.268 18.7 1.1 4.296 1.238 11.522.413 21.68 15.092 10.108 27.125 21.317 36.1 33.63 8.052 11.045 12.306 19.608 14.727 27.943 1.626 5.6 3.372 14.663 5.476 20.616 4.434 12.542 122.108 34.417 158.284 129.106 8.997 23.546 15.77 61.456 12.986 116.755 3.806-15.462 6.179-26.465 7.12-33.01 2.974-20.7 2.613-35.976 2.842-45.216.99-39.966-18.977-77.838-29.402-105.982-7.037-18.998-7.383-34.567-3.55-39.058 3.833-4.492 23.758.795 40.746 26.256 4.859 7.281 8.969 23.723 12.33 49.326.079-.393 2.738-4.715 3.698-11.028.46-3.024.7-8.88.72-17.568 22.426 13.877 35.905 32.497 40.436 55.861 9.937 51.235-10.15 100.768-8.036 101.023 1.1.132 5.126-5.915 8.036-12.32 2.438-5.368 4.272-10.586 5.503-15.652 2.233 7.741 3.376 15.728 3.428 23.96.069 10.546-.744 24.013-3.428 37.572-1.33 6.715-3.693 13.32-5.503 19.867-1.75 6.327-8.915 25.64-22.872 44.668-8.3 11.316-20.335 21.73-31.406 31.446-9.701 8.515-25.63 15.907-47.785 22.175-6.64 3.07-15.455 4.858-26.446 5.362-87.827 4.03-166.95 2.187-183.842 0-11.031-1.428-16.96-13.441-17.214-15.475-.085-.68-1.152-7.443 0-14.26.635-3.764 2.892-8.283 6.77-13.558 6.213-9.884 27.137-14.666 62.773-14.344-15.888-21.013-36.082-55.03-49.267-88.583-12.78-32.524-13.882-67.439-17.03-79.126-5.674-21.062-15.363-37.194-19.15-42.565-9.054-12.845-27.329-24.304-32.465-26.248-11.877-4.496-27.758-7.287-50.008-13.32-6.095-1.653-16.23-5.15-30.405-10.491-15.776-8.735-23.664-19.54-23.664-32.414 0-5.536 6.875-25.053 40.349-58.925 21.466-21.721 45.969-38.643 54.949-43.919 9.212-5.412 21.665-11.138 37.36-17.177-.279-5.556 1.874-11.641 6.46-18.256zm-46.422 93.224c-11.046 0-20 8.954-20 20s8.954 20 20 20 20-8.954 20-20-8.954-20-20-20z" fill="#8C5431"/><path d="M64.584 282.313c10.035-6.679 22.9-1.843 39.07 3.603 4.85 1.634 9.994 3.366 15.452 4.97 7.433 2.186 17.009 3.353 26.816 4.453l1.964.22 2.455.274c1.318.148 2.635.297 3.946.45l1.57.186c10.182 1.22 19.882 2.739 26.713 5.829 2.785 1.26 5.07 2.77 6.592 4.71 1.26 1.609 1.951 3.516 1.951 5.787 0 10.633-12.98 24.2-30.267 34.91-16.483 10.213-37.281 17.85-56.422 17.85-18.056 0-31.415-4.904-40.544-12.619-10.554-8.919-15.372-21.545-15.372-34.248 0-11.182 7.203-30.468 16.076-36.375z" stroke="#979797" stroke-width="5" fill="#AD743D"/><path d="M284.668 168.81c2.5-3.068 16.092.361 31.156 12.906 10.31 8.585 22.957 18.83 32.83 30.882 14.962 18.263 25.784 38.846 30.077 49.604 7.995 20.035 16.317 48.984 15.428 83.328-.13 5 .626 20.652-3.31 32.628-3.486 10.613-9.252 15.745-14.324 16.086-5.073.34-8.684-3.217-9.644-14.476-.249-2.918 1.12-13.426 1.69-24.707.669-13.24.547-27.592 0-32.703-2.26-21.1-8.987-41.104-12.118-48.95-4.615-11.566-22.81-42.887-40.629-60.81-11.034-11.098-24.782-22.028-31.156-30.882-3.92-5.445-2.5-9.84 0-12.907z" fill="#5E2417" fill-rule="nonzero"/><path d="M88.424 339.082c40.869 0 89.19-33.865 89.19-55.26 0-16.515-29.199-17.479-53.923-20.411-4.128-.49-12.13-2.732-19.163-6.459-5.416-2.87-10.303-7.048-12.118-9.354-4.332-5.503-6.129-13.684-15.402-13.684-3.887 0-9.587 3.062-15.043 8.875-2.994 3.191-5.276 7.631-8.33 11.464-10.84 13.599-20.874 29.37-20.874 35.984 0 24.853 14.794 48.845 55.663 48.845z" fill="#8C5431"/><path d="M46.008 347.686c20.987 0 30-39.011 30-59.998 0-20.987-17.017-36-38.004-36S0 268.545 0 289.532c0 20.987 25.021 58.154 46.008 58.154z" fill="#5E2417"/><path d="M185.565 186.454c2.546-8.503 10.135-34.152-10.166-55.676-5.49-5.82-17.417-10.825-35.78-15.015 0-20.71-17.4-39.075-38.111-39.075-10.093 0-35.651 7.492-52.853 30.82-18.097 24.543-27.606 65.234-27.606 75.852 0 1.883 9.457 6.95 22.643 11.356 7.821 2.614 35.987 8.13 61.495 20.236 19.492 9.25 36.145 22.62 43.131 36.736 10.007 20.217 13.163 45.971 18.534 72.546 4.6 22.758 12.383 46.1 23.212 67.281 23.475 45.915 50.548 78.333 55.133 78.615 2.962.178 47.58-59.864 23.065-123.698-24.865-64.748-121.305-133.186-118.65-133.47 19.664-2.113 34.314-21.033 35.953-26.508z" fill="#CA9A73"/><circle fill="#5E2417" cx="97.008" cy="130.688" r="20"/><path d="M104.424 368.055c40.869 0 89.19-33.865 89.19-55.26 0-21.396-49.009-17.018-73.803-24.307-24.795-7.29-43.102-17.248-56.612-8.256-9.381 6.245-17.191 26.58-17.191 38.456 0 24.853 17.547 49.367 58.416 49.367z" fill="#8C5431"/></g></svg>
