<?xml version="1.0" standalone="no"?>
<!DOCTYPE svg PUBLIC "-//W3C//DTD SVG 20010904//EN"
 "http://www.w3.org/TR/2001/REC-SVG-20010904/DTD/svg10.dtd">
<svg version="1.0" xmlns="http://www.w3.org/2000/svg"
 width="380.000000pt" height="380.000000pt" viewBox="0 0 380.000000 380.000000"
 preserveAspectRatio="xMidYMid meet">

<g transform="translate(0.000000,380.000000) scale(0.100000,-0.100000)"
fill="#000000" stroke="none">
<path d="M1705 3406 c-49 -7 -100 -16 -111 -20 -12 -4 -35 -9 -50 -11 -38 -6
-143 -46 -223 -85 -87 -42 -162 -92 -247 -160 -199 -164 -330 -350 -434 -618
-54 -138 -103 -391 -90 -462 l7 -38 -64 -12 c-35 -7 -62 -14 -59 -17 2 -2 55
5 118 17 62 12 136 23 163 26 l50 5 -25 -18 c-51 -36 -128 -123 -150 -170 -35
-72 -37 -151 -6 -242 14 -41 26 -82 26 -90 0 -9 -16 -32 -36 -51 -19 -19 -48
-62 -65 -95 -72 -147 -49 -294 69 -434 l54 -63 -23 -22 c-13 -11 -60 -48 -104
-81 -44 -33 -89 -67 -100 -77 -11 -9 -55 -44 -98 -78 -86 -67 -111 -107 -109
-175 2 -53 46 -95 98 -95 77 0 124 33 267 188 74 81 155 166 180 190 l44 44
63 -32 c467 -236 1224 -306 1840 -170 374 82 790 298 890 463 40 65 20 121
-63 178 -5 4 -11 24 -13 45 -6 50 -31 119 -61 166 -28 46 -28 53 -3 111 40 91
36 215 -12 310 -10 20 -49 69 -86 109 l-67 71 43 -6 c109 -17 117 -14 16 7
-108 22 -180 55 -154 71 25 16 -23 268 -82 430 -181 495 -601 838 -1096 895
-109 12 -182 11 -297 -4z m212 -207 c15 -6 38 -20 50 -31 26 -24 45 -16 37 16
-5 22 -3 22 77 24 80 2 81 1 74 -21 -17 -56 -25 -95 -25 -124 0 -31 1 -32 38
-30 33 2 37 0 35 -20 -2 -17 2 -23 17 -23 26 0 100 -29 122 -48 10 -8 27 -34
38 -58 26 -52 20 -101 -17 -145 -42 -49 -26 -63 60 -55 39 4 83 9 97 12 14 2
42 7 62 10 34 6 40 12 63 61 37 82 31 120 -28 178 -22 22 -108 55 -145 56 -25
0 -26 1 -5 9 13 5 39 4 70 -4 143 -38 203 -126 158 -233 -19 -45 -20 -41 13
-45 40 -5 36 -38 -8 -60 -45 -22 -47 -22 -55 2 -7 21 -39 27 -50 10 -4 -6 -3
-19 1 -28 4 -9 8 -30 8 -47 1 -29 2 -30 59 -33 37 -2 57 1 57 8 0 6 4 9 9 6
16 -10 -3 -204 -24 -246 -7 -14 -16 -42 -20 -62 -7 -35 -7 -35 -43 -27 -76 17
-330 48 -412 51 l-84 3 -15 -29 c-12 -26 -12 -36 0 -70 13 -39 17 -41 61 -46
60 -7 68 -16 23 -24 -41 -8 -47 -26 -7 -26 25 -1 25 -2 9 -14 -23 -18 -13 -69
16 -81 28 -12 46 -64 46 -133 l1 -52 -53 6 c-72 9 -111 -11 -125 -63 -5 -21
-10 -30 -11 -20 -2 30 -21 18 -21 -13 l0 -30 -62 6 c-48 5 -69 13 -90 32 -16
14 -28 29 -28 33 0 5 41 29 91 55 91 47 199 134 199 160 0 19 -9 18 -34 -3
-17 -15 -19 -15 -8 -1 9 11 10 18 2 23 -18 11 -11 28 10 22 24 -6 34 7 25 31
-6 15 -8 15 -14 2 -5 -14 -8 -13 -24 3 -18 18 -18 19 2 24 26 7 17 23 -12 23
-18 0 -26 -12 -44 -69 -27 -80 -28 -101 -7 -101 8 0 12 -5 9 -10 -8 -13 -81
-60 -94 -60 -23 0 -42 122 -21 135 5 3 16 -7 24 -23 8 -16 22 -34 30 -41 14
-12 16 -10 16 8 0 12 -7 24 -15 27 -22 9 -18 34 5 34 21 0 33 18 44 63 5 22 3
27 -13 27 -21 0 -43 -22 -39 -40 2 -7 -3 -15 -11 -17 -10 -4 -12 2 -6 27 4 18
3 31 -1 29 -71 -31 -133 -65 -150 -80 -19 -18 -24 -18 -50 -5 -16 8 -49 20
-74 28 -48 14 -110 61 -110 84 0 17 61 19 91 4 10 -6 67 -12 125 -13 99 -2
104 -1 85 14 -18 15 -19 18 -6 29 9 8 26 10 42 6 58 -15 78 -16 92 -8 11 8 10
14 -4 36 -12 17 -16 39 -13 67 l4 42 -181 -6 c-102 -3 -245 -15 -330 -28 -82
-12 -157 -22 -166 -23 -8 0 -35 23 -60 53 -72 89 -87 96 -189 96 l-88 0 -5 35
c-6 55 -1 61 52 55 25 -3 52 -2 60 4 22 15 -39 71 -77 71 -33 0 -80 21 -93 42
-5 7 -9 25 -9 40 0 25 6 29 61 44 33 9 63 24 66 32 11 26 58 70 101 92 43 22
51 34 31 46 -15 9 -2 71 26 119 29 50 67 78 125 93 55 14 150 26 150 19 0 -3
-31 -13 -70 -21 -38 -9 -85 -23 -103 -32 -58 -28 -102 -114 -85 -165 9 -25 14
-27 86 -32 l77 -4 35 38 c35 38 92 71 143 83 25 6 27 9 21 44 -8 57 44 137
115 174 58 30 135 37 188 17z m-794 -816 c-7 -2 -19 -2 -25 0 -7 3 -2 5 12 5
14 0 19 -2 13 -5z m82 -94 c25 -23 45 -45 45 -49 0 -7 -125 -50 -144 -50 -3 0
-6 5 -6 12 0 6 -10 33 -22 60 -15 33 -28 48 -42 50 -12 0 -1 4 24 8 90 14 98
12 145 -31z m-409 -35 c-18 -18 -18 -17 -7 -67 l9 -37 -42 23 c-52 29 -54 55
-6 79 45 23 67 24 46 2z m1851 -40 c-3 -3 -12 -4 -19 -1 -8 3 -5 6 6 6 11 1
17 -2 13 -5z m-1332 -19 c-22 -8 -49 -13 -60 -13 -11 0 0 6 25 13 59 17 87 17
35 0z m1500 -16 c405 -98 639 -277 610 -468 -20 -130 -128 -238 -333 -333 -90
-42 -250 -99 -273 -97 -8 0 29 15 81 33 196 68 326 141 411 233 63 67 81 106
87 183 5 76 -9 118 -59 175 -98 111 -268 193 -559 270 -160 43 -136 45 35 4z
m-1700 -43 c-119 -42 -241 -98 -299 -138 -54 -37 -137 -122 -159 -163 -29 -55
-28 -144 1 -202 46 -88 174 -196 293 -245 27 -12 49 -25 49 -29 0 -14 -8 -11
-78 22 -139 65 -230 143 -282 240 -29 56 -32 67 -28 124 4 48 12 73 36 106 63
91 166 170 301 232 75 34 249 96 271 96 8 0 -39 -19 -105 -43z m405 24 c0 -5
-4 -10 -10 -10 -5 0 -10 5 -10 10 0 6 5 10 10 10 6 0 10 -4 10 -10z m345 0 c4
-6 -5 -10 -20 -10 -15 0 -24 4 -20 10 3 6 12 10 20 10 8 0 17 -4 20 -10z
m-316 -49 c9 -6 10 -10 2 -16 -16 -9 -44 2 -36 15 8 12 16 12 34 1z m731 -1
c0 -12 -28 -25 -36 -17 -9 9 6 27 22 27 8 0 14 -5 14 -10z m105 0 c3 -5 1 -10
-5 -10 -7 0 -27 -7 -46 -16 -43 -20 -58 -10 -24 16 27 21 65 26 75 10z m90
-10 c4 -6 23 -7 44 -4 22 3 41 2 45 -4 3 -6 33 -8 71 -5 40 4 76 1 95 -7 33
-14 40 -30 13 -31 -94 -3 -151 -28 -159 -68 -5 -21 -10 -28 -22 -24 -10 4 -13
2 -8 -5 4 -7 13 -12 21 -12 7 0 16 -13 20 -28 3 -16 19 -43 35 -61 37 -40 38
-54 3 -47 -32 7 -45 0 -62 -31 -6 -13 -16 -23 -22 -23 -6 0 -5 8 2 21 6 12 12
44 13 71 2 42 -2 54 -26 80 -15 17 -28 34 -28 38 0 5 -12 18 -26 29 -20 15
-41 21 -80 21 -62 0 -70 13 -20 30 28 9 45 8 86 -4 l50 -15 -26 35 c-15 18
-30 34 -35 34 -5 0 -9 5 -9 10 0 13 17 13 25 0z m-65 -20 c18 -11 15 -13 -34
-28 -58 -16 -76 6 -22 28 28 11 38 12 56 0z m-1655 -20 c3 -5 1 -10 -4 -10 -6
0 -11 5 -11 10 0 6 2 10 4 10 3 0 8 -4 11 -10z m1554 -35 c8 -8 13 -16 10 -19
-14 -14 -38 -7 -62 18 l-29 29 33 -7 c19 -3 40 -13 48 -21z m-354 -119 c10
-15 16 -28 14 -31 -14 -13 -99 -42 -104 -35 -3 5 -3 39 1 77 6 54 12 71 33 91
l26 24 6 -49 c4 -28 14 -62 24 -77z m-705 67 c0 -7 -7 -13 -15 -13 -19 0 -20
-34 -1 -49 17 -14 31 2 20 22 -4 6 -3 9 1 4 5 -4 16 0 26 9 13 12 22 13 38 5
26 -14 64 -14 78 0 20 20 63 1 75 -31 7 -21 17 -30 32 -30 12 0 38 -16 59 -36
25 -24 37 -31 37 -21 0 14 30 17 80 7 3 0 -10 -7 -29 -15 -28 -13 -32 -17 -21
-30 12 -14 8 -15 -27 -9 -43 7 -145 -19 -240 -61 -29 -13 -53 -22 -53 -20 0 2
7 20 16 39 10 20 14 42 10 53 -7 16 -9 15 -22 -9 -9 -17 -20 -25 -29 -22 -8 4
-13 10 -10 14 3 5 1 20 -5 34 -10 29 -5 31 34 16 20 -7 26 -6 26 4 0 21 -122
40 -216 34 -90 -5 -174 -39 -215 -85 -34 -40 -79 -127 -79 -154 0 -69 84 -123
156 -101 20 6 47 7 63 2 22 -6 30 -4 40 12 6 10 16 16 21 13 6 -4 8 -11 5 -16
-4 -5 -2 -9 4 -9 18 0 23 20 6 26 -9 4 -14 13 -10 22 3 8 0 21 -6 29 -18 21
-20 73 -3 73 9 0 14 -11 14 -31 0 -29 2 -31 28 -24 15 3 28 10 30 14 1 5 9 17
17 27 13 18 14 18 34 -4 11 -13 25 -21 30 -17 16 10 13 -4 -8 -33 -10 -15 -22
-38 -26 -51 -12 -38 -58 -98 -85 -112 -14 -7 -40 -24 -58 -37 -31 -23 -36 -23
-80 -12 -26 7 -54 18 -62 25 -8 7 -42 27 -75 45 -33 19 -72 43 -87 54 -25 18
-26 20 -10 33 16 12 16 14 -2 27 -10 8 -15 19 -12 25 4 5 2 28 -3 51 -7 33 -6
42 5 47 9 3 13 16 12 32 -2 20 2 27 18 29 28 4 71 51 76 82 2 19 8 24 25 23
15 -2 28 6 39 22 9 14 24 25 34 25 10 0 23 7 30 15 15 18 81 20 98 3 9 -9 12
-6 12 13 0 43 20 58 80 61 55 3 79 -9 80 -39z m30 32 c0 -8 -6 -15 -13 -15 -8
0 -14 7 -14 15 0 8 6 15 14 15 7 0 13 -7 13 -15z m1683 -31 c26 -14 47 -26 47
-28 0 -3 -133 42 -170 57 -8 4 5 4 30 1 25 -4 66 -17 93 -30z m-1236 20 c-3
-3 -12 -4 -19 -1 -8 3 -5 6 6 6 11 1 17 -2 13 -5z m1305 -23 c26 -16 52 -40
59 -53 10 -19 6 -18 -22 9 -19 17 -50 40 -69 52 -19 11 -30 21 -24 21 5 0 31
-13 56 -29z m-942 9 c0 -5 -5 -10 -11 -10 -5 0 -7 5 -4 10 3 6 8 10 11 10 2 0
4 -4 4 -10z m368 -16 c27 -18 28 -30 5 -35 -10 -3 -31 8 -47 23 l-29 28 25 0
c13 0 34 -7 46 -16z m83 -81 c10 -27 7 -80 -7 -132 -5 -17 -4 -22 4 -17 7 4
12 3 12 -3 0 -5 12 -23 26 -40 29 -35 27 -36 -40 -16 -35 11 -59 12 -83 6 -34
-10 -72 -45 -73 -68 0 -31 -83 1 -114 44 -11 14 -21 47 -24 73 l-4 47 42 7
c55 9 86 25 151 81 62 53 94 58 110 18z m-1383 -35 c13 -13 17 -68 5 -68 -12
0 -44 61 -37 71 7 12 18 11 32 -3z m90 -23 c4 -18 -13 -35 -34 -35 -11 0 -25
56 -16 64 9 10 47 -12 50 -29z m1912 4 c0 -19 4 -21 31 -15 25 5 32 2 36 -14
4 -14 14 -20 34 -20 21 0 27 -4 23 -15 -4 -8 -1 -22 6 -30 6 -8 10 -20 7 -27
-2 -7 2 -20 9 -28 7 -9 10 -21 5 -28 -6 -10 -15 -10 -42 2 -19 7 -66 19 -105
26 l-71 11 18 37 c11 20 19 56 19 79 0 32 4 43 15 43 9 0 15 -9 15 -21z
m-2062 -1 c18 -18 15 -38 -5 -38 -18 1 -63 32 -63 44 0 11 56 6 68 -6z m727
-8 c3 -5 1 -10 -4 -10 -6 0 -11 5 -11 10 0 6 2 10 4 10 3 0 8 -4 11 -10z
m-795 -25 c31 -33 22 -39 -26 -19 -49 20 -52 23 -34 34 23 15 35 12 60 -15z
m756 1 c3 -8 12 -12 20 -9 10 4 14 -3 14 -21 0 -14 -3 -25 -7 -25 -17 3 -24
-2 -18 -11 5 -8 11 -7 20 0 11 9 18 8 28 -1 12 -11 10 -15 -11 -26 -13 -7 -31
-13 -39 -13 -8 0 -28 -7 -45 -16 -30 -15 -32 -15 -45 2 -10 13 -12 32 -9 57 4
22 2 37 -4 37 -5 0 -10 5 -10 11 0 6 6 9 13 6 7 -3 24 1 38 9 31 17 48 17 55
0z m1087 -16 c11 -10 -80 -30 -131 -29 -50 1 -80 13 -62 24 38 24 170 27 193
5z m-1880 -25 c15 -11 10 -13 -35 -18 -29 -2 -54 -3 -56 -2 -2 2 6 13 17 24
21 21 38 20 74 -4z m1202 -91 c9 -14 30 -33 46 -42 38 -22 37 -29 -7 -24 -27
3 -48 17 -84 54 l-47 49 26 28 26 28 11 -33 c6 -19 19 -46 29 -60z m-570 76
c7 -12 -22 -12 -50 0 -17 7 -15 9 12 9 17 1 35 -3 38 -9z m-180 -20 c-3 -5
-12 -10 -18 -10 -7 0 -29 -11 -50 -25 -43 -30 -50 -23 -10 9 40 32 93 50 78
26z m-437 -12 c19 -19 14 -30 -9 -23 -34 11 -89 -5 -115 -32 -22 -24 -24 -24
-24 -6 0 49 113 96 148 61z m242 -39 c0 -5 -4 -9 -10 -9 -5 0 -10 7 -10 16 0
8 5 12 10 9 6 -3 10 -10 10 -16z m729 7 c7 -9 8 -22 3 -37 l-9 -23 -17 27
c-25 37 -4 66 23 33z m119 -19 c30 -18 40 -45 14 -40 -6 2 -23 -2 -37 -7 -28
-11 -33 1 -10 20 24 20 17 34 -7 16 -52 -37 -53 -37 -51 2 1 21 2 38 2 40 2 6
59 -13 89 -31z m-928 14 c0 -5 -9 -11 -20 -14 -22 -6 -28 8 -7 16 19 8 27 8
27 -2z m748 -18 c2 -8 -5 -13 -16 -13 -30 0 -53 11 -46 22 8 13 57 6 62 -9z
m1137 -13 c-103 -18 -116 -19 -112 -7 5 15 59 23 112 18 l40 -5 -40 -6z
m-1217 -12 c4 -20 -32 -25 -58 -8 -13 9 -13 11 0 20 22 15 54 8 58 -12z m-188
2 c-19 -13 -30 -13 -30 0 0 6 10 10 23 10 18 0 19 -2 7 -10z m880 -10 c-16
-11 -40 -13 -40 -5 0 8 44 24 50 18 2 -2 -2 -8 -10 -13z m-780 -9 c0 -14 -18
-23 -30 -16 -6 4 -8 11 -5 16 8 12 35 12 35 0z m1164 -6 c-10 -8 -23 -14 -29
-14 -5 0 -1 6 9 14 11 8 24 15 30 15 5 0 1 -7 -10 -15z m326 5 c0 -5 -13 -10
-30 -10 -16 0 -30 5 -30 10 0 6 14 10 30 10 17 0 30 -4 30 -10z m-1946 -9 c3
-5 -3 -20 -14 -32 l-19 -24 -1 26 c0 35 20 53 34 30z m303 3 c-3 -3 -12 -4
-19 -1 -8 3 -5 6 6 6 11 1 17 -2 13 -5z m-27 -20 c0 -17 -55 -74 -72 -74 -16
0 -13 7 19 39 36 36 53 48 53 35z m132 0 c5 -4 -30 -65 -46 -81 -5 -5 -66 19
-66 26 0 9 81 61 95 61 7 0 14 -3 17 -6z m444 -20 c39 -30 47 -53 9 -28 -15
10 -45 16 -76 16 -46 -1 -50 1 -33 12 10 8 28 16 39 19 11 2 21 5 23 6 2 0 19
-11 38 -25z m-1066 6 c0 -5 -5 -10 -11 -10 -5 0 -7 5 -4 10 3 6 8 10 11 10 2
0 4 -4 4 -10z m810 -5 c0 -8 6 -12 14 -9 8 3 17 1 21 -5 9 -16 -23 -25 -39
-12 -12 10 -13 8 -9 -8 3 -12 14 -21 24 -21 11 0 19 -4 19 -8 0 -14 -23 -32
-42 -32 -11 0 -23 -11 -28 -25 -5 -14 -16 -25 -24 -25 -22 0 -41 -71 -27 -98
15 -28 15 -28 -15 -27 -37 0 -55 -30 -29 -49 21 -16 16 -16 -114 0 l-43 6 71
65 c76 69 91 98 44 87 -38 -9 -153 -76 -237 -137 l-69 -51 -81 3 c-98 3 -148
-13 -221 -73 -85 -70 -418 -367 -464 -415 -170 -179 -310 -313 -329 -318 -28
-7 -82 40 -82 72 0 34 58 84 427 373 294 229 356 281 373 316 23 49 25 86 5
141 -8 22 -15 41 -15 42 0 1 21 16 46 33 107 72 259 130 338 130 22 -1 59 -9
81 -20 45 -22 59 -25 50 -10 -3 6 0 10 8 10 8 0 18 -10 22 -22 4 -14 8 -18 12
-10 6 16 23 15 23 -2 0 -15 27 -30 48 -27 6 1 12 -3 12 -9 0 -5 4 -10 8 -10 5
0 14 25 21 56 l13 56 33 -6 c21 -4 35 -2 37 5 2 6 21 11 42 11 29 0 40 4 43
19 6 22 33 26 33 4z m494 -17 c4 -19 2 -34 -4 -36 -17 -6 -11 -26 14 -44 17
-12 39 -16 85 -13 58 3 90 -9 57 -21 -21 -8 -10 -24 15 -24 12 0 19 -7 19 -20
0 -14 7 -20 23 -20 29 0 47 -18 47 -45 0 -12 5 -26 12 -33 7 -7 9 -12 5 -12
-3 0 -55 -7 -114 -16 -76 -11 -108 -13 -111 -5 -2 6 -13 11 -24 11 -17 0 -18
3 -8 15 24 29 -72 95 -138 95 -31 0 -76 -13 -129 -36 -51 -23 -50 -16 10 37
31 28 57 58 57 68 0 9 14 27 30 39 24 18 34 20 49 12 13 -7 22 -7 26 0 9 15
25 12 25 -6 0 -8 5 -12 10 -9 6 4 8 10 5 15 -3 4 2 11 11 14 12 4 14 14 9 36
-4 17 -2 30 3 30 5 0 12 -15 16 -32z m-904 12 c0 -5 -7 -10 -16 -10 -8 0 -12
5 -9 10 3 6 10 10 16 10 5 0 9 -4 9 -10z m1217 4 c-3 -3 -12 -4 -19 -1 -8 3
-5 6 6 6 11 1 17 -2 13 -5z m-467 -23 c0 -6 -4 -13 -10 -16 -5 -3 -10 1 -10 9
0 9 5 16 10 16 6 0 10 -4 10 -9z m56 -28 c-10 -10 -19 5 -10 18 6 11 8 11 12
0 2 -7 1 -15 -2 -18z m-163 3 c24 -18 42 -85 28 -99 -8 -8 -11 -7 -11 4 0 25
-44 68 -80 77 l-35 9 25 11 c34 14 52 14 73 -2z m847 10 c0 -3 -4 -8 -10 -11
-5 -3 -10 -1 -10 4 0 6 5 11 10 11 6 0 10 -2 10 -4z m107 -20 c32 -13 66 -27
76 -30 27 -9 12 -24 -34 -36 -22 -6 -48 -14 -57 -17 -14 -5 -15 -3 -4 8 27 29
2 41 -29 13 -14 -13 -20 -13 -38 -2 -22 13 -37 45 -27 55 3 4 14 -1 24 -10 20
-18 42 -22 42 -8 0 5 -7 14 -15 21 -8 7 -12 16 -9 21 7 12 4 12 71 -15z
m-1092 -38 c26 -4 65 -64 65 -99 0 -18 -7 -32 -21 -39 -29 -16 -33 -8 -8 19
19 20 20 26 8 48 -7 13 -32 36 -56 49 -28 17 -40 30 -36 40 5 13 7 13 17 0 6
-8 20 -16 31 -18z m465 23 c0 -14 -18 -23 -30 -16 -6 4 -8 11 -5 16 8 12 35
12 35 0z m-1696 -156 c45 -44 88 -93 96 -108 8 -15 34 -47 59 -69 l44 -41 -29
-24 c-16 -13 -54 -43 -85 -68 l-57 -45 -43 31 c-24 17 -64 50 -88 73 -35 32
-39 34 -20 10 13 -17 50 -51 82 -77 57 -46 57 -46 35 -61 -12 -9 -26 -16 -31
-16 -14 0 -126 111 -164 163 -46 63 -55 104 -37 175 16 61 41 107 88 160 l30
34 19 -29 c11 -15 57 -64 101 -108z m1331 112 c19 -30 23 -69 8 -74 -8 -3 -13
4 -13 19 0 13 -7 33 -15 44 -17 22 -19 34 -5 34 5 0 16 -10 25 -23z m1311
-136 c6 -39 5 -43 -12 -39 -10 2 -19 9 -18 16 1 6 2 31 3 55 2 51 17 34 27
-32z m-1156 19 c0 -5 -8 -10 -17 -10 -15 0 -16 2 -3 10 19 12 20 12 20 0z
m-90 -25 c0 -8 -73 -36 -78 -30 -3 2 10 11 29 19 36 16 49 19 49 11z m1085
-13 c-3 -3 -11 0 -18 7 -9 10 -8 11 6 5 10 -3 15 -9 12 -12z m-476 -26 c-7 -7
-219 -46 -247 -45 -15 0 23 9 83 20 61 10 115 21 120 23 13 6 49 7 44 2z
m-414 -15 c14 -6 5 -9 -35 -14 -87 -11 -112 -7 -60 8 53 15 68 16 95 6z m-752
-38 c-7 -2 -19 -2 -25 0 -7 3 -2 5 12 5 14 0 19 -2 13 -5z m870 0 c-7 -2 -19
-2 -25 0 -7 3 -2 5 12 5 14 0 19 -2 13 -5z m856 -44 c17 -6 31 -15 31 -19 0
-19 -102 -111 -170 -155 -83 -54 -160 -91 -280 -132 -137 -48 -135 -48 -159
-7 -27 45 -26 54 2 54 23 0 219 64 292 95 88 38 222 130 251 174 1 0 15 -4 33
-10z m232 -46 c18 -47 2 -81 -54 -117 -87 -55 -106 -62 -62 -23 22 20 47 39
55 42 9 3 23 18 32 33 16 27 16 30 -2 60 -20 32 -20 32 0 32 13 0 24 -10 31
-27z m-2441 -103 c18 -11 18 -11 -73 -79 -70 -53 -82 -58 -92 -41 -7 12 114
129 135 129 8 1 22 -4 30 -9z m2160 -31 c-155 -126 -480 -269 -480 -211 0 5
46 24 103 42 120 37 236 90 327 148 71 45 89 53 50 21z m-2014 -29 c248 -86
638 -139 924 -125 158 7 326 24 358 36 19 7 27 3 52 -33 17 -22 30 -44 30 -48
0 -4 -46 -14 -102 -23 -379 -61 -760 -61 -1098 -2 -133 24 -348 79 -362 94 -7
6 118 120 133 121 3 0 32 -9 65 -20z m797 -27 c-7 -2 -21 -2 -30 0 -10 3 -4 5
12 5 17 0 24 -2 18 -5z m85 0 c-10 -2 -28 -2 -40 0 -13 2 -5 4 17 4 22 1 32
-1 23 -4z m55 0 c-7 -2 -19 -2 -25 0 -7 3 -2 5 12 5 14 0 19 -2 13 -5z m527
-130 c50 -82 28 -74 -25 9 -73 112 -80 127 -42 84 19 -22 49 -63 67 -93z
m-1787 80 c2 -5 -9 -18 -24 -31 -32 -26 -41 -10 -11 19 19 20 29 23 35 12z
m362 -113 c355 -84 817 -99 1213 -39 73 11 137 17 142 14 45 -28 -43 -53 -308
-86 -329 -41 -738 -23 -1047 46 -119 27 -264 71 -279 85 -5 5 -2 19 7 34 l17
25 67 -25 c38 -14 122 -39 188 -54z m382 -186 c-3 -3 -12 -4 -19 -1 -8 3 -5 6
6 6 11 1 17 -2 13 -5z m646 -1 c-7 -2 -19 -2 -25 0 -7 3 -2 5 12 5 14 0 19 -2
13 -5z"/>
<path d="M2067 2303 c-12 -11 -7 -63 8 -93 9 -17 17 -30 19 -30 2 0 3 21 2 48
0 26 3 55 8 65 6 13 4 17 -11 17 -11 0 -23 -3 -26 -7z"/>
<path d="M1433 1863 c-27 -10 -11 -23 27 -23 23 0 40 5 40 11 0 7 -9 9 -24 5
-13 -3 -26 -2 -28 3 -2 4 -9 6 -15 4z"/>
<path d="M1523 1852 c-13 -8 -6 -52 8 -52 14 0 19 17 11 39 -4 12 -12 17 -19
13z"/>
<path d="M1813 1513 c-18 -7 -16 -23 2 -23 8 0 15 7 15 15 0 8 -1 15 -2 14 -2
0 -9 -3 -15 -6z"/>
<path d="M1730 1481 c0 -17 28 -43 38 -37 20 12 13 33 -13 38 -14 3 -25 2 -25
-1z"/>
<path d="M1066 1287 c3 -10 9 -15 12 -12 3 3 0 11 -7 18 -10 9 -11 8 -5 -6z"/>
<path d="M1118 1263 c7 -3 16 -2 19 1 4 3 -2 6 -13 5 -11 0 -14 -3 -6 -6z"/>
<path d="M1061 1244 c0 -11 3 -14 6 -6 3 7 2 16 -1 19 -3 4 -6 -2 -5 -13z"/>
<path d="M1066 1203 c-6 -14 -5 -15 5 -6 7 7 10 15 7 18 -3 3 -9 -2 -12 -12z"/>
<path d="M1021 1121 c-7 -5 -9 -11 -5 -14 5 -3 15 1 22 9 14 16 5 18 -17 5z"/>
<path d="M289 539 c-24 -24 -21 -39 12 -58 53 -30 120 19 83 60 -23 25 -69 24
-95 -2z"/>
<path d="M3468 1983 c7 -3 16 -2 19 1 4 3 -2 6 -13 5 -11 0 -14 -3 -6 -6z"/>
</g>
</svg>
