<?xml version="1.0" standalone="no"?>
<!DOCTYPE svg PUBLIC "-//W3C//DTD SVG 20010904//EN"
 "http://www.w3.org/TR/2001/REC-SVG-20010904/DTD/svg10.dtd">
<svg version="1.0" xmlns="http://www.w3.org/2000/svg"
 width="400.000000pt" height="400.000000pt" viewBox="0 0 400.000000 400.000000"
 preserveAspectRatio="xMidYMid meet">

<g transform="translate(0.000000,400.000000) scale(0.100000,-0.100000)"
fill="#000000" stroke="none">
<path d="M1770 3703 c-14 -2 -59 -10 -100 -18 -41 -8 -88 -16 -103 -19 -60
-10 -279 -107 -317 -140 -8 -8 -28 -20 -45 -29 -16 -8 -81 -58 -143 -109 -167
-139 -283 -286 -381 -483 -77 -154 -106 -231 -142 -384 -42 -176 -59 -309 -46
-374 1 -6 -18 -17 -43 -23 -54 -15 -24 -17 40 -3 52 11 211 39 223 39 4 0 -28
-35 -72 -78 -92 -90 -130 -159 -138 -253 -5 -51 -1 -76 27 -159 l33 -98 -48
-58 c-26 -33 -62 -88 -79 -124 -29 -60 -31 -72 -30 -170 0 -96 3 -110 32 -172
18 -38 58 -98 89 -135 l56 -66 -29 -24 c-16 -13 -45 -36 -64 -51 -19 -15 -41
-33 -48 -40 -8 -7 -30 -25 -50 -40 -21 -15 -39 -29 -42 -32 -3 -3 -50 -43
-106 -87 -76 -61 -107 -93 -122 -127 -28 -60 -21 -123 18 -161 68 -66 178 -30
287 94 96 108 166 185 250 272 l74 77 117 -58 c233 -116 521 -192 877 -231
143 -16 548 -16 695 0 257 27 516 86 726 165 176 66 443 225 552 330 77 73 92
100 92 162 0 44 -4 51 -48 94 -44 43 -50 53 -56 105 -6 57 -50 160 -83 197
-14 16 -14 21 2 55 48 101 57 221 25 326 -22 70 -100 181 -159 226 -39 30 -28
48 21 33 18 -6 56 -13 83 -16 56 -6 48 -3 -75 25 -47 11 -94 22 -105 24 -11 3
-31 14 -45 24 -18 15 -21 22 -13 33 19 23 -27 286 -79 448 -47 146 -184 408
-251 480 -8 8 -42 47 -75 86 -72 84 -208 202 -308 266 -76 49 -272 139 -339
156 -159 42 -240 52 -390 50 -66 0 -131 -3 -145 -5z m191 -229 c30 -9 64 -25
76 -36 26 -24 45 -16 37 16 -5 23 -4 23 85 25 50 0 91 -1 91 -4 0 -2 -7 -22
-15 -42 -8 -21 -16 -63 -18 -93 l-2 -55 40 0 c35 0 40 -3 38 -22 -2 -17 4 -23
28 -28 47 -10 113 -42 132 -63 9 -10 26 -39 37 -65 18 -41 19 -52 10 -89 -7
-24 -23 -55 -37 -70 -16 -17 -23 -33 -19 -43 5 -15 17 -16 84 -11 100 8 120
11 162 20 62 13 70 17 70 32 0 8 9 32 20 54 32 62 27 112 -16 160 -38 42 -121
80 -174 80 -36 0 -40 15 -6 24 38 9 147 -29 193 -68 72 -63 90 -133 53 -206
-26 -50 -26 -50 10 -50 60 0 48 -48 -18 -76 -37 -15 -51 -8 -52 24 0 17 -39
15 -46 -3 -4 -8 -3 -23 2 -32 4 -10 8 -34 8 -53 l1 -35 53 -3 c30 -2 60 2 67
8 34 28 15 -206 -24 -290 -11 -25 -21 -55 -21 -67 0 -20 -3 -21 -32 -12 -58
16 -370 58 -463 61 l-90 3 -14 -41 c-13 -37 -13 -44 5 -80 15 -31 25 -40 49
-42 59 -5 80 -13 64 -23 -7 -5 -26 -9 -41 -9 -20 0 -26 -4 -22 -15 5 -11 18
-13 62 -9 46 4 55 3 44 -8 -7 -7 -27 -12 -45 -13 -31 0 -32 -2 -32 -39 1 -30
5 -40 19 -42 10 -1 24 -11 31 -21 18 -23 37 -113 33 -155 l-3 -33 -73 0 c-68
0 -75 -2 -98 -28 -13 -15 -24 -40 -25 -55 l-1 -27 -7 25 -7 25 -13 -23 c-7
-13 -10 -30 -7 -38 4 -11 -8 -14 -59 -14 -60 0 -68 3 -102 33 -22 20 -33 39
-29 46 4 6 34 25 67 41 95 49 161 94 207 144 23 25 42 50 42 55 0 20 -19 21
-30 1 -6 -11 -16 -20 -22 -20 -6 0 -6 6 3 16 10 13 10 17 -1 24 -18 11 -5 25
23 25 24 0 31 14 16 35 -8 12 -12 12 -16 2 -4 -10 -8 -10 -19 -1 -19 15 -18
29 2 29 9 0 14 6 12 13 -3 6 -15 12 -27 12 -18 0 -26 -12 -46 -70 -28 -78 -31
-111 -12 -118 23 -8 -57 -77 -91 -77 -24 0 -46 140 -24 154 4 2 18 -15 31 -40
13 -24 28 -44 32 -44 16 0 10 42 -8 55 -20 15 -9 35 16 28 14 -3 21 3 30 28
24 70 5 103 -35 58 -14 -16 -16 -23 -6 -26 10 -4 10 -8 1 -19 -18 -22 -30 -6
-23 32 4 21 2 34 -4 34 -6 0 -12 -4 -14 -9 -1 -5 -35 -25 -75 -45 -39 -19 -76
-44 -82 -53 -9 -17 -10 -17 -28 0 -11 9 -35 20 -54 23 -59 12 -114 40 -142 74
-15 17 -27 36 -27 41 0 14 73 11 121 -6 30 -11 72 -15 136 -13 91 3 114 10 72
23 -21 7 -21 7 -2 26 17 17 24 18 49 8 29 -11 92 -14 102 -5 2 3 -3 22 -13 42
-12 25 -15 50 -12 77 l5 40 -186 -6 c-189 -6 -384 -26 -501 -53 -35 -8 -65
-13 -66 -12 -57 86 -111 145 -150 165 -32 17 -107 21 -167 9 l-38 -7 0 57 0
57 49 -7 c51 -7 81 -1 81 16 0 5 -14 23 -31 40 -24 24 -39 31 -70 31 -32 0
-48 7 -75 32 -58 55 -43 92 47 114 46 11 58 19 79 53 15 23 49 55 82 75 50 31
56 38 47 55 -15 29 7 122 39 161 57 68 104 89 230 102 65 7 90 -8 30 -18 -165
-27 -218 -63 -249 -167 -9 -29 -9 -46 -1 -64 9 -21 18 -24 99 -28 74 -4 89 -2
97 11 23 41 86 88 139 105 65 20 72 28 57 57 -14 25 -2 62 43 131 40 61 83 83
208 107 3 1 30 -6 60 -15z m-848 -921 c-7 -2 -19 -2 -25 0 -7 3 -2 5 12 5 14
0 19 -2 13 -5z m99 -115 c26 -28 46 -53 44 -55 -1 -2 -38 -14 -82 -27 -71 -21
-79 -22 -82 -7 -2 9 -14 40 -28 69 -18 39 -29 52 -46 53 -37 2 40 16 96 18 48
1 52 -1 98 -51z m-456 -33 c-14 -15 -14 -47 0 -92 5 -19 -14 -16 -52 8 -19 11
-34 29 -34 38 0 29 41 58 83 60 17 1 17 -1 3 -14z m851 -11 c-3 -3 -12 -4 -19
-1 -8 3 -5 6 6 6 11 1 17 -2 13 -5z m1241 -45 c214 -46 412 -115 511 -178 26
-17 52 -31 58 -31 22 0 160 -147 183 -195 54 -111 15 -264 -93 -360 -77 -69
-158 -122 -261 -170 -96 -46 -302 -118 -318 -113 -6 2 41 21 103 42 109 37
297 118 309 134 3 4 25 20 50 36 62 39 147 131 178 191 22 42 27 63 27 130 0
69 -4 86 -27 126 -89 151 -330 279 -694 370 -116 28 -151 39 -130 39 3 0 50
-9 104 -21z m-1488 2 c-8 -5 -31 -12 -50 -16 -86 -17 -316 -100 -404 -144
-115 -59 -181 -106 -237 -169 -66 -75 -83 -117 -84 -197 0 -80 23 -139 80
-201 19 -21 36 -40 37 -44 7 -15 120 -92 193 -131 93 -49 90 -47 83 -55 -9 -8
-142 61 -221 114 -126 84 -189 180 -195 298 -5 88 14 136 83 212 115 127 330
238 615 317 92 25 126 31 100 16z m180 -47 c0 -8 -5 -12 -10 -9 -6 4 -8 11 -5
16 9 14 15 11 15 -7z m380 -4 c0 -5 -9 -10 -20 -10 -11 0 -20 5 -20 10 0 6 9
10 20 10 11 0 20 -4 20 -10z m-340 -50 c13 -9 13 -11 0 -20 -21 -14 -40 -12
-40 3 0 26 16 33 40 17z m915 -11 c5 -5 -1 -9 -17 -9 -14 0 -37 -9 -51 -20
-21 -16 -27 -17 -36 -6 -9 11 -5 18 21 34 32 19 62 20 83 1z m101 -9 c6 -6 20
-6 41 2 25 10 35 9 48 -2 12 -10 39 -14 92 -11 55 2 80 -1 99 -14 31 -20 22
-37 -20 -34 -76 6 -140 -25 -150 -72 -4 -22 -10 -30 -21 -25 -8 3 -15 1 -15
-5 0 -6 9 -13 20 -16 11 -3 20 -10 20 -17 0 -6 18 -37 40 -69 22 -31 40 -60
40 -63 0 -3 -11 -3 -24 0 -34 8 -54 -2 -72 -35 -21 -42 -34 -36 -18 9 24 67
18 116 -18 153 -18 19 -33 40 -34 48 -6 32 -34 45 -104 49 -72 4 -85 13 -49
33 23 12 85 8 137 -9 31 -10 33 -10 21 6 -7 9 -26 32 -43 50 -20 22 -25 32
-15 32 8 0 19 -4 25 -10z m-66 -25 c0 -8 -8 -15 -17 -15 -10 0 -30 -6 -45 -14
-37 -20 -58 1 -26 26 29 22 88 24 88 3z m-1815 -15 c3 -5 1 -10 -4 -10 -6 0
-11 5 -11 10 0 6 2 10 4 10 3 0 8 -4 11 -10z m890 0 c3 -5 1 -10 -4 -10 -6 0
-11 5 -11 10 0 6 2 10 4 10 3 0 8 -4 11 -10z m798 -35 c22 -9 17 -29 -9 -33
-12 -2 -28 8 -42 27 l-21 29 27 -8 c15 -4 35 -11 45 -15z m-1123 -9 c0 -2 3
-11 6 -20 4 -11 1 -16 -10 -16 -9 0 -19 -7 -22 -15 -4 -8 -12 -15 -20 -15 -18
0 -18 -31 1 -56 14 -19 15 -19 21 1 8 29 53 60 67 46 14 -14 72 -14 98 0 23
12 69 -11 69 -35 0 -18 27 -39 50 -41 10 -1 34 -18 53 -38 25 -27 36 -33 40
-24 3 9 21 14 46 14 48 0 54 -13 11 -22 -25 -5 -30 -11 -25 -26 6 -17 2 -19
-37 -18 -55 2 -147 -22 -230 -60 -77 -36 -99 -40 -74 -12 20 22 34 91 18 91
-6 0 -14 -9 -17 -20 -3 -11 -15 -20 -25 -20 -14 0 -19 9 -22 40 -4 45 -4 46
46 25 35 -15 36 -15 25 3 -7 12 -39 25 -84 37 -232 57 -449 -57 -472 -251 -7
-59 16 -98 72 -119 36 -14 53 -16 87 -7 24 5 57 8 74 5 20 -3 34 1 43 11 17
20 35 21 27 1 -6 -18 10 -20 20 -3 4 6 0 17 -10 23 -9 7 -14 19 -11 27 4 9 0
22 -7 29 -18 19 -19 79 -2 79 9 0 14 -11 14 -28 0 -38 6 -42 40 -31 17 6 31
20 34 35 6 23 36 35 36 14 0 -21 20 -9 21 13 0 22 0 22 12 -2 9 -19 9 -25 -1
-29 -6 -2 -12 -8 -12 -14 0 -6 7 -7 16 -4 9 3 14 3 12 -1 -84 -176 -101 -198
-174 -233 -24 -12 -44 -25 -44 -30 0 -18 -31 -18 -82 2 -29 11 -55 23 -58 28
-3 4 -23 17 -45 28 -22 12 -66 39 -99 60 -51 35 -56 41 -40 50 18 10 18 11 0
30 -11 13 -15 28 -11 41 3 12 3 26 -1 33 -14 22 -12 67 3 72 11 4 13 14 9 31
-5 21 -2 27 21 36 42 16 84 63 81 90 -3 20 1 24 26 24 22 0 33 7 46 30 10 18
24 29 33 27 9 -2 30 7 46 19 29 21 51 22 94 4 13 -6 17 -2 17 17 0 46 21 61
90 62 41 1 64 -3 67 -11 8 -20 23 -15 23 7 0 11 5 20 10 20 6 0 10 -2 10 -4z
m714 -11 c-8 -21 15 -112 32 -126 8 -6 14 -15 14 -19 0 -7 -103 -60 -115 -60
-3 0 -3 37 -1 83 3 73 6 85 30 110 30 30 49 36 40 12z m1124 -42 c29 -15 56
-31 59 -36 3 -5 -5 -3 -18 4 -13 7 -62 25 -109 41 -79 27 -81 29 -35 23 28 -3
74 -17 103 -32z m-1348 23 c0 -3 -4 -8 -10 -11 -5 -3 -10 -1 -10 4 0 6 5 11
10 11 6 0 10 -2 10 -4z m1426 -28 c26 -18 54 -44 63 -58 11 -19 6 -17 -25 12
-21 20 -55 45 -74 57 -19 12 -30 21 -24 21 7 0 33 -15 60 -32z m-1034 0 c-7
-7 -12 -8 -12 -2 0 6 3 14 7 17 3 4 9 5 12 2 2 -3 -1 -11 -7 -17z m417 -13
c15 -15 14 -17 -3 -30 -16 -12 -21 -12 -35 5 -9 11 -25 27 -36 36 -19 15 -18
15 19 10 22 -3 47 -13 55 -21z m80 -87 c15 -42 14 -76 -3 -132 -12 -41 -12
-45 0 -35 8 6 14 7 14 2 0 -6 12 -27 26 -48 l25 -38 -23 7 c-93 26 -113 28
-149 13 -24 -10 -41 -27 -53 -52 -16 -34 -21 -37 -49 -31 -64 13 -117 88 -117
166 l0 40 43 0 c44 0 115 36 147 75 23 28 100 74 115 69 8 -3 18 -19 24 -36z
m-1501 -40 c18 -18 16 -78 -3 -78 -8 0 -15 8 -15 19 0 10 -7 24 -15 31 -8 7
-15 19 -15 26 0 17 32 18 48 2z m80 3 c18 -11 12 -51 -10 -65 -21 -13 -24 -10
-32 37 -6 31 -4 37 11 37 10 0 24 -4 31 -9z m2102 -27 c0 -23 3 -24 34 -19 28
6 34 4 39 -15 4 -17 10 -20 33 -14 25 6 26 5 21 -18 -5 -17 -2 -30 8 -38 9 -7
13 -21 10 -30 -3 -9 1 -23 9 -29 8 -7 12 -20 9 -28 -4 -11 -2 -14 5 -9 7 4 12
2 12 -3 0 -14 -4 -14 -47 4 -44 19 -155 45 -189 45 l-24 0 20 37 c13 24 20 57
20 90 0 32 5 53 13 56 19 7 27 -2 27 -29z m-2244 -15 c14 -28 13 -29 -7 -29
-12 0 -34 11 -51 25 l-30 25 24 9 c31 11 46 4 64 -30z m789 11 c3 -5 2 -10 -4
-10 -5 0 -13 5 -16 10 -3 6 -2 10 4 10 5 0 13 -4 16 -10z m-872 -32 c35 -34
24 -51 -15 -24 -12 9 -30 16 -40 16 -21 0 -23 11 -6 28 18 18 26 15 61 -20z
m822 2 c5 -16 12 -19 27 -14 17 5 20 3 14 -11 -4 -12 2 -27 19 -45 l26 -28
-37 -7 c-21 -3 -55 -15 -76 -26 -20 -10 -41 -19 -45 -19 -16 0 -34 58 -27 85
4 18 2 30 -7 36 -16 10 -15 10 41 31 60 21 58 21 65 -2z m1164 -6 c47 -10 38
-19 -34 -33 -68 -14 -170 -7 -159 11 16 25 119 37 193 22z m-2043 -30 c43 -21
38 -26 -26 -29 -51 -3 -63 8 -38 33 16 16 23 15 64 -4z m1373 -157 c42 -24 39
-33 -8 -29 -33 3 -44 10 -65 43 -15 21 -30 39 -34 39 -4 0 -15 7 -25 15 -18
13 -18 15 8 48 l28 34 33 -66 c21 -42 44 -73 63 -84z m-669 133 c0 -5 -9 -10
-19 -10 -11 0 -23 5 -26 10 -4 6 5 10 19 10 14 0 26 -4 26 -10z m-190 -18 c0
-4 -15 -13 -34 -20 -18 -7 -41 -21 -51 -32 -10 -11 -23 -20 -28 -20 -17 0 36
52 68 66 35 16 45 17 45 6z m-472 -24 c22 -19 13 -30 -19 -23 -45 10 -93 -2
-123 -32 -23 -23 -26 -24 -26 -6 0 31 22 53 70 68 45 13 74 11 98 -7z m1050
-31 c14 -16 4 -59 -12 -54 -14 5 -36 48 -30 59 8 12 30 10 42 -5z m80 7 c29
-8 28 -20 -5 -49 -32 -28 -48 -32 -39 -9 3 8 2 24 -4 33 -15 29 1 37 48 25z
m-978 -24 c-19 -12 -30 -12 -30 -1 0 10 31 20 40 14 2 -2 -2 -8 -10 -13z m819
11 c19 -12 6 -41 -17 -41 -11 0 -25 7 -33 16 -10 13 -10 17 2 25 18 11 30 11
48 0z m231 -33 l21 -23 -33 -6 c-18 -4 -41 -10 -50 -14 -24 -10 -23 1 5 35 27
35 31 36 57 8z m-310 -3 c15 -18 13 -20 -21 -28 -35 -9 -59 16 -32 32 25 15
39 13 53 -4z m1365 5 c4 -7 -2 -9 -19 -4 -14 3 -34 3 -43 -2 -10 -4 -35 -9
-55 -10 -21 -1 -51 -12 -68 -24 -17 -12 -33 -20 -35 -18 -3 2 14 18 38 35 37
27 51 31 109 32 37 1 70 -4 73 -9z m-1569 -15 c-21 -16 -32 -13 -21 4 3 6 14
11 23 11 15 -1 15 -2 -2 -15z m960 -10 c-23 -17 -36 -19 -36 -6 0 11 18 19 40
20 11 0 10 -3 -4 -14z m-850 -24 c-10 -16 -36 -13 -36 3 0 17 21 27 34 16 4
-5 5 -13 2 -19z m1628 8 c-6 -11 -36 -12 -61 -2 -15 6 -13 8 12 13 35 7 57 2
49 -11z m-1790 -10 c-3 -5 -10 -7 -15 -3 -5 3 -7 10 -3 15 3 5 10 7 15 3 5 -3
7 -10 3 -15z m-334 -6 c0 -10 -7 -27 -15 -37 -14 -19 -15 -18 -15 10 0 17 3
34 7 37 12 12 23 7 23 -10z m300 -15 c0 -18 -58 -78 -76 -78 -20 0 -17 21 4
27 10 2 29 18 43 34 27 33 29 34 29 17z m150 2 c0 -12 -50 -85 -58 -85 -29 2
-71 18 -66 26 23 38 124 86 124 59z m485 -24 c22 -19 37 -38 33 -42 -5 -4 -17
1 -28 11 -13 12 -37 18 -75 19 -30 0 -55 4 -55 7 0 8 57 35 80 38 3 0 23 -15
45 -33z m-1165 14 c0 -5 -5 -10 -11 -10 -5 0 -7 5 -4 10 3 6 8 10 11 10 2 0 4
-4 4 -10z m876 -5 c4 -9 13 -14 22 -13 8 2 17 -3 20 -11 4 -11 -2 -13 -26 -8
-26 5 -29 4 -25 -13 3 -11 14 -20 25 -20 32 0 17 -34 -17 -40 -22 -4 -31 -11
-33 -28 -2 -13 -14 -27 -27 -32 -31 -12 -53 -77 -36 -108 16 -29 14 -35 -8
-29 -12 3 -27 -3 -37 -15 -15 -16 -16 -22 -6 -39 13 -20 11 -20 -75 -13 -48 4
-90 8 -92 10 -2 2 34 39 80 82 46 44 81 83 77 88 -21 21 -150 -47 -294 -153
l-71 -52 -74 3 c-89 4 -154 -11 -209 -49 -84 -58 -539 -486 -663 -622 -211
-234 -252 -262 -305 -213 -63 59 -37 96 201 287 94 77 258 208 362 292 240
193 263 215 286 265 24 52 24 74 0 141 l-19 54 57 39 c106 75 241 130 337 139
52 5 69 2 109 -18 35 -18 49 -21 52 -11 7 20 31 14 35 -10 2 -12 9 -23 16 -26
7 -2 10 2 6 12 -3 9 -1 16 5 16 6 0 11 -7 11 -15 0 -16 38 -41 58 -37 6 2 12
-2 12 -8 0 -5 7 -10 15 -10 10 0 15 11 16 33 2 62 13 82 45 82 16 0 36 4 44
10 8 5 31 10 50 10 27 0 37 5 45 23 11 26 23 28 31 7z m541 3 c-2 -7 0 -23 4
-36 7 -17 5 -24 -6 -28 -22 -9 -19 -21 11 -47 27 -23 98 -32 121 -14 14 10 53
0 53 -14 0 -5 -7 -12 -15 -15 -22 -9 -18 -22 8 -26 14 -2 23 -11 25 -25 3 -18
10 -23 31 -23 31 0 57 -23 46 -40 -4 -6 0 -21 9 -34 l15 -24 -114 -17 c-97
-15 -118 -15 -144 -4 -33 15 -39 25 -18 32 19 7 -39 63 -90 87 -41 19 -51 20
-101 9 -32 -6 -74 -20 -94 -30 -62 -32 -62 -22 1 39 39 37 61 66 61 80 0 15 8
26 24 32 13 5 27 14 31 19 4 8 12 8 27 0 14 -8 23 -8 31 0 16 16 27 13 27 -6
0 -14 4 -13 21 6 15 16 20 30 16 51 -6 28 -1 40 16 40 5 0 7 -6 4 -12z m-987
-13 c0 -8 -7 -15 -15 -15 -26 0 -18 20 13 29 1 1 2 -6 2 -14z m1340 11 c0 -2
-9 -6 -20 -9 -11 -3 -20 -1 -20 4 0 5 9 9 20 9 11 0 20 -2 20 -4z m-520 -30
c0 -8 -4 -18 -10 -21 -5 -3 -10 3 -10 14 0 12 5 21 10 21 6 0 10 -6 10 -14z
m70 -15 c0 -6 -4 -13 -10 -16 -5 -3 -10 1 -10 9 0 9 5 16 10 16 6 0 10 -4 10
-9z m735 0 c3 -5 1 -12 -5 -16 -5 -3 -10 1 -10 9 0 18 6 21 15 7z m-917 -17
c12 -8 22 -25 22 -38 0 -12 5 -27 12 -34 10 -10 8 -16 -5 -29 -16 -16 -17 -16
-17 4 0 26 -63 83 -93 83 -21 1 -22 1 -3 15 25 19 56 19 84 -1z m1030 -8 c26
-13 60 -26 75 -30 50 -12 28 -30 -73 -61 -20 -6 -23 -5 -12 6 29 31 -7 42 -41
12 -18 -17 -19 -17 -31 -1 -7 10 -16 15 -19 12 -3 -4 -9 6 -13 20 -9 36 4 46
25 19 12 -14 22 -18 31 -13 12 7 11 12 -3 28 -16 18 -14 32 5 32 5 0 30 -11
56 -24z m-1183 -40 c30 -8 76 -82 73 -120 -2 -19 -11 -32 -30 -42 -35 -18 -36
-2 -2 25 26 20 26 21 9 48 -21 33 -52 60 -82 73 -23 9 -30 30 -16 44 4 3 10 0
15 -8 4 -7 19 -17 33 -20z m506 19 c0 -5 -9 -11 -21 -13 -20 -3 -27 8 -13 22
10 9 34 3 34 -9z m-399 -46 c21 -28 28 -80 12 -86 -7 -2 -14 13 -18 35 -3 22
-13 45 -21 52 -8 7 -15 17 -15 22 0 16 22 4 42 -23z m-1555 -6 c10 -15 55 -65
101 -112 46 -46 90 -98 99 -115 9 -17 40 -55 69 -86 l52 -55 -90 -74 c-106
-87 -98 -87 -217 24 -41 39 -65 57 -54 40 25 -35 72 -80 127 -120 l38 -29 -22
-18 c-12 -10 -28 -18 -36 -18 -20 0 -146 129 -187 191 -49 73 -55 120 -28 207
20 67 99 192 121 192 5 0 17 -12 27 -27z m2977 -95 c9 -34 7 -98 -3 -98 -12 0
-32 26 -25 32 3 3 5 24 6 47 0 45 12 54 22 19z m-1254 -38 c0 -5 -4 -10 -9
-10 -6 0 -13 5 -16 10 -3 6 1 10 9 10 9 0 16 -4 16 -10z m-105 -30 c-3 -5 -12
-10 -18 -10 -7 0 -24 -7 -39 -14 -39 -20 -35 -10 5 14 34 21 62 27 52 10z
m1205 -5 c17 -9 30 -18 30 -20 0 -6 -52 16 -64 27 -16 13 3 9 34 -7z m-575
-41 c-56 -15 -225 -44 -252 -43 -10 0 37 11 104 24 67 12 128 25 135 28 7 3
24 5 38 5 15 0 5 -5 -25 -14z m-410 -4 c19 -7 18 -8 -6 -15 -14 -3 -45 -5 -70
-3 l-44 3 35 12 c42 13 59 14 85 3z m-807 -47 c-10 -2 -26 -2 -35 0 -10 3 -2
5 17 5 19 0 27 -2 18 -5z m925 0 c-7 -2 -21 -2 -30 0 -10 3 -4 5 12 5 17 0 24
-2 18 -5z m962 -57 c18 -13 18 -16 -17 -58 -94 -114 -323 -243 -556 -311 l-52
-16 -25 48 -24 48 57 13 c166 37 421 159 522 249 49 44 66 48 95 27z m234 -37
c9 -17 12 -37 7 -62 -7 -38 -32 -60 -131 -116 l-40 -23 45 41 c25 22 48 41 52
41 4 0 16 10 28 22 24 26 26 66 5 94 -19 25 -19 36 2 32 10 -2 24 -15 32 -29z
m-159 -9 c0 -5 -5 -10 -11 -10 -5 0 -7 5 -4 10 3 6 8 10 11 10 2 0 4 -4 4 -10z
m41 -43 c-10 -9 -11 -8 -5 6 3 10 9 15 12 12 3 -3 0 -11 -7 -18z m-2524 -83
c-34 -35 -167 -124 -184 -124 -13 0 -23 2 -23 5 0 3 35 39 77 79 77 74 78 74
106 59 16 -8 27 -17 24 -19z m2338 -20 c-92 -79 -240 -163 -403 -229 -86 -34
-95 -36 -110 -22 -9 9 -14 18 -11 20 2 3 49 19 104 37 123 40 277 112 370 174
79 51 94 58 50 20z m-2239 -13 c32 -31 364 -112 584 -142 191 -27 748 -13 869
22 9 2 28 -16 49 -46 l34 -50 -89 -17 c-198 -38 -373 -52 -628 -52 -266 0
-399 11 -615 50 -120 22 -367 87 -380 101 -6 6 141 142 156 143 5 0 14 -4 20
-9z m1609 -150 c36 -54 65 -101 65 -104 0 -23 -23 3 -63 71 -26 42 -57 93 -69
111 -12 19 -17 32 -10 28 6 -5 41 -52 77 -106z m-1915 45 c0 -11 -51 -59 -56
-53 -8 8 28 56 44 57 6 0 12 -2 12 -4z m163 -61 c113 -47 321 -94 560 -127
136 -18 208 -22 447 -22 285 0 407 10 615 49 48 9 74 10 83 3 29 -24 10 -36
-90 -56 -233 -47 -395 -63 -656 -62 -367 0 -628 37 -934 131 -101 31 -109 38
-92 83 8 20 22 20 67 1z m1350 -272 c-7 -2 -19 -2 -25 0 -7 3 -2 5 12 5 14 0
19 -2 13 -5z"/>
<path d="M2139 2443 c-7 -19 -6 -37 4 -66 19 -59 34 -57 33 5 0 29 3 61 8 71
6 13 4 17 -13 17 -14 0 -25 -9 -32 -27z"/>
<path d="M1447 1963 c-14 -14 -6 -20 29 -21 43 -2 62 7 43 19 -7 4 -19 3 -25
-2 -8 -7 -14 -6 -19 1 -7 12 -19 13 -28 3z"/>
<path d="M1546 1952 c-7 -12 4 -52 15 -52 13 0 18 15 12 38 -5 22 -18 29 -27
14z"/>
<path d="M1850 1826 c0 -9 5 -16 10 -16 6 0 10 4 10 9 0 6 -4 13 -10 16 -5 3
-10 -1 -10 -9z"/>
<path d="M1872 1578 c-14 -14 -16 -28 -3 -28 9 0 24 30 18 36 -2 2 -9 -2 -15
-8z"/>
<path d="M1784 1514 c13 -27 28 -31 46 -9 16 20 6 32 -28 33 -28 1 -29 -1 -18
-24z"/>
<path d="M1052 1316 c7 -8 15 -12 17 -11 5 6 -10 25 -20 25 -5 0 -4 -6 3 -14z"/>
<path d="M1100 1296 c0 -9 30 -14 35 -6 4 6 -3 10 -14 10 -12 0 -21 -2 -21 -4z"/>
<path d="M1052 1270 c0 -14 2 -19 5 -12 2 6 2 18 0 25 -3 6 -5 1 -5 -13z"/>
<path d="M1051 1223 c-7 -8 -11 -16 -8 -19 2 -2 10 2 17 11 17 20 9 27 -9 8z"/>
<path d="M1006 1134 c-8 -21 -8 -24 5 -24 5 0 7 5 4 10 -3 6 -1 10 4 10 6 0
11 5 11 10 0 16 -17 12 -24 -6z"/>
<path d="M205 480 c-11 -13 -15 -27 -11 -44 13 -53 126 -41 126 13 0 15 -5 32
-12 39 -19 19 -82 15 -103 -8z"/>
<path d="M368 2103 c6 -2 18 -2 25 0 6 3 1 5 -13 5 -14 0 -19 -2 -12 -5z"/>
<path d="M3668 2103 c7 -3 16 -2 19 1 4 3 -2 6 -13 5 -11 0 -14 -3 -6 -6z"/>
</g>
</svg>
